<?xml version="1.0" encoding="utf-8"?>
<!DOCTYPE svg PUBLIC "-//W3C//DTD SVG 1.0//EN" "http://www.w3.org/TR/2001/REC-SVG-20010904/DTD/svg10.dtd">
<svg version="1.0" xmlns="http://www.w3.org/2000/svg" width="311px" height="105px" viewBox="0 0 311 105" preserveAspectRatio="xMidYMid meet">
 <g fill="#392e31">
  <path d="M71.2 91.9 c-0.6 -1.4 -1.7 -8 -2.5 -14.7 -0.8 -6.8 -1.6 -12.5 -1.9 -12.7 -0.2 -0.2 -2.1 0 -4.3 0.5 -2.2 0.5 -7.4 1 -11.6 1 -6.3 0 -7.8 -0.3 -8.3 -1.7 -0.4 -0.9 -0.3 -2 0.1 -2.4 0.4 -0.4 5.3 -0.9 10.8 -1.1 10.9 -0.4 13.3 -1.1 11.4 -3.4 -0.8 -1 -3.6 -1.4 -10.1 -1.4 -7.1 0 -9 -0.3 -9.5 -1.6 -1.1 -2.9 1.5 -3.9 10.2 -3.7 5.2 0.1 9.6 0.7 11.5 1.6 2.8 1.4 3 1.4 3 -0.2 0 -1 -0.9 -2.6 -2.1 -3.7 -1.8 -1.6 -3.7 -1.9 -11.7 -1.9 -8.7 0 -9.7 -0.2 -10 -1.9 -0.6 -2.8 1.5 -3.6 9.8 -3.6 8 0 13.4 1.1 16.5 3.4 2.5 1.8 2.7 11.1 0.4 14.7 -1.7 2.5 -1.3 9.6 1 22.5 1.4 7.5 1.4 8.6 -0.3 11 -1.4 1.8 -1.5 1.8 -2.4 -0.7z"/>
  <path d="M142.5 91.1 c-1.9 -6.1 5.1 -28.5 10.7 -34.5 5.6 -5.8 5.1 -7.4 -1.9 -7.8 -5.4 -0.3 -5.8 -0.5 -5.8 -2.8 l0 -2.5 15 0 c14.3 0 15 0.1 15 2 0 1.8 -0.8 2 -6.7 2.3 -5.2 0.2 -6.8 0.6 -6.8 1.7 0 1 1 1.5 3 1.5 7.1 0 10.7 4.6 8.6 11 -1 3.1 -1.5 3.5 -4.9 3.8 -3.9 0.3 -3.9 0.3 -3.2 4 1 5.3 3.8 10.2 8.4 14.7 2.3 2.1 4.1 4.7 4.1 5.7 0 3.2 -3.6 1.9 -8.2 -3 -5.2 -5.5 -8.6 -13.6 -9 -21.4 l-0.3 -5.3 4.8 0.3 c4.3 0.4 4.8 0.2 4.5 -1.5 -0.4 -2.4 -7.6 -3 -11.6 -0.9 -3.9 2 -7.4 9.7 -9.6 21 -2 10.2 -3.1 13.6 -4.5 13.6 -0.5 0 -1.2 -0.9 -1.6 -1.9z"/>
  <path d="M262.2 92.1 c-0.6 -0.4 -2.4 -4.1 -3.8 -8.2 -3.6 -10.2 -3.8 -24 -0.5 -31.4 1.3 -2.7 3 -6.6 3.7 -8.5 l1.5 -3.5 -2.2 2.5 c-1.1 1.3 -3.2 4.5 -4.6 7 -4.8 8.4 -9.2 11.5 -7.4 5.2 1.5 -5 4.9 -10.7 9.5 -15.9 3.2 -3.5 4.6 -6 4.6 -7.9 0 -2.7 -0.2 -2.6 -5.4 2.9 -6 6.2 -8.1 7.2 -7.4 3.2 0.5 -2.3 0.2 -2.5 -2.8 -2.5 -3.2 0 -3.4 0.2 -3.4 3.5 0 3 0.3 3.5 2.3 3.5 1.3 0 3.2 0.6 4.2 1.4 1.6 1.2 1.7 1.6 0.6 3 -0.7 0.9 -2.5 1.6 -4 1.6 -2.6 0 -2.7 0.2 -3.9 9.3 -1.9 15.1 -7.8 33.7 -10.6 33.7 -2.2 0 -2 -1.6 1.9 -15.3 2 -6.7 3.8 -15.7 4.2 -19.9 l0.6 -7.7 -5.9 -0.3 c-5.5 -0.3 -5.9 -0.5 -5.9 -2.8 0 -2.6 -0.2 -2.6 9.3 -2.9 1.8 -0.1 2.2 -0.7 2.2 -3.5 l0 -3.3 -4.8 0.5 c-3.7 0.3 -5.1 0 -6.2 -1.3 -2.4 -2.9 0 -5.1 5.4 -4.7 3 0.2 4.6 0 4.6 -0.8 0 -3 -2.4 -10 -3.4 -10 -0.6 0 -3.3 1.2 -6.1 2.5 -8.4 4.1 -8.7 0.3 -0.5 -5.5 3.9 -2.7 4.9 -4 4.5 -5.5 -1.7 -6.6 -1.7 -9.5 -0.2 -9.5 2.3 0 4.4 3.6 5.7 9.5 0.6 2.8 1.6 6.7 2.2 8.8 l1.2 3.8 2.3 -9.6 c3 -12.6 3.6 -13.6 5.7 -10.3 1.3 2 1.4 3.1 0.6 5.2 -1.5 4.1 -1.3 5 2.1 7.5 l3.1 2.3 3.1 -3 c2.6 -2.6 2.8 -3.3 1.8 -4.6 -1 -1.2 -1.8 -1.3 -3.3 -0.5 -3.1 1.7 -5 0.4 -4.6 -3.3 0.3 -3.1 0.5 -3.3 3.8 -3 1.9 0.2 4.7 1 6.2 1.7 2.4 1.2 2.9 1.1 3.7 -0.2 1.2 -2.1 8.7 -1.2 11.3 1.5 2.8 2.8 3.9 12.8 2.9 26.8 -1 13 -1.8 16.1 -5.7 20.8 -2.5 2.8 -2.6 3.5 -2.1 11.1 0.2 4.7 1.5 11.3 3 15.9 2.7 8.1 2.7 9.9 0.3 9 -3.2 -1.2 -7.9 -16.8 -8 -26.4 -0.1 -5.4 0.2 -6.2 5.8 -16.8 3.4 -6.3 1.2 -6.5 -3.3 -0.2 -4.5 6.1 -5.6 7 -6.4 4.8 -0.9 -2.5 -3 4.9 -3.5 12.4 -0.4 6.5 0 9.1 2.2 16.2 1.4 4.6 2.6 9.1 2.6 9.9 0 2 -1.2 2.8 -2.8 1.8z m12.1 -58 c0.9 -0.7 1.7 -2.7 1.7 -4.5 l0 -3.1 -3.9 4 c-2.9 3 -4 5.1 -4.4 8.3 l-0.5 4.2 2.7 -3.7 c1.5 -2.1 3.5 -4.4 4.4 -5.2z m-11.3 -14.1 c-0.1 -2.5 -0.1 -2.5 -3.3 1.1 -1.8 2 -4.7 4.6 -6.4 5.8 -3.1 2.1 -3.3 2.1 -3.3 0.4 0 -1.1 0.5 -2.4 1.1 -3 1.3 -1.3 0.5 -2.9 -2.2 -4.3 -2.1 -1.2 -2.9 0.1 -4.4 6.8 -0.7 3.2 -0.7 3.2 3.4 3.2 2.2 0 4.3 0.5 4.7 1.1 1.1 1.8 10.4 -8.1 10.4 -11.1z m13 -1.7 c0 -2 -1.6 -1.5 -4.9 1.3 -2.2 1.8 -3.1 3.5 -3.1 5.6 l0 3.1 4 -4.4 c2.1 -2.4 3.9 -5 4 -5.6z m-3 -7.5 c0 -0.4 -1.5 -0.7 -3.4 -0.5 -3.2 0.2 -3.3 0.3 -2.3 3 l0.9 2.8 2.4 -2.2 c1.3 -1.2 2.4 -2.6 2.4 -3.1z"/>
  <path d="M43.4 76.9 c-0.3 -0.6 -0.3 -2 0 -3.2 0.5 -2.1 1 -2.2 9.3 -1.9 10.9 0.3 13.3 0.8 13.3 2.8 0 1.9 -0.8 2.1 -12.2 2.8 -6.2 0.3 -10 0.2 -10.4 -0.5z"/>
  <path d="M26.2 65.3 c-4.2 -1.7 -5.6 -11.2 -4.7 -31.1 0.9 -18.9 1.3 -19.7 10.4 -19.7 8.5 0 9.6 1.3 9.6 11.4 l0 7.8 3.3 -0.8 c1.9 -0.4 3.5 -0.9 3.7 -1.1 0.2 -0.2 -0.5 -2.8 -1.5 -5.8 -2.5 -7.2 -2.8 -20.8 -0.4 -21.7 2.7 -1 3.9 1.6 4.5 10.5 0.6 8.4 3.2 17.2 5 17.2 0.5 0 0.9 -6.4 0.9 -14.3 0 -11.1 0.3 -14.8 1.5 -16.3 2.4 -3.1 3.5 -0.1 3.5 9.7 0 8.3 0.1 8.6 2.6 9.8 1.5 0.6 2.7 1 2.8 0.9 0.1 -0.2 1 -3 2 -6.3 2.2 -7.2 5.3 -13.5 6.6 -13.5 2 0 2.1 4.9 0.2 9.1 -1.1 2.4 -2.3 6 -2.7 7.9 -0.4 1.9 -1.4 4.8 -2.2 6.4 -1.3 2.6 -1.9 2.8 -5.4 2.3 -3.5 -0.5 -3.9 -0.3 -3.9 1.8 0 2.4 2.9 3.5 9.7 3.5 3.2 0 5.5 2.2 3.8 3.8 -1.1 1.1 -31.8 2.1 -33.1 1 -0.9 -0.6 -1.4 1.9 -1.9 9.4 -0.7 11.9 -1.9 16.4 -4.5 17.8 -1.9 1 -7.6 1.2 -9.8 0.3z m8.7 -9 c0.6 -2.1 1.1 -6.2 1.1 -9 l0 -5.3 -5.1 0 -5.1 0 0.4 7.4 c0.4 8 1.7 10.6 5.4 10.6 1.8 0 2.5 -0.8 3.3 -3.7z m1.7 -22.8 c0.8 -3.3 -0.5 -11.8 -1.9 -12.7 -1.9 -1.2 -5.4 -0.9 -6.4 0.5 -0.6 0.6 -1.3 4.2 -1.6 8 l-0.5 6.7 4.9 0 c4.4 0 4.9 -0.3 5.5 -2.5z"/>
  <path d="M128.1 61.1 c-2.4 -2.4 -2.9 -6 -3.5 -26.5 -0.7 -19 -0.4 -19.6 7.9 -19.6 4.1 0 5.6 0.5 7.2 2.3 1.9 2 2.1 3.5 2.2 16.8 0.1 17 -1 24.7 -4 27.2 -2.8 2.3 -7.4 2.2 -9.8 -0.2z m7.9 -6.7 c0.6 -1.4 1 -4.8 1 -7.5 l0 -4.9 -4.1 0 -4.2 0 0.7 6.1 c0.4 3.3 1 6.7 1.3 7.5 0.9 2.3 4.3 1.6 5.3 -1.2z m0.7 -24.9 c-0.7 -7.8 -1.1 -8.5 -4.3 -8.5 -2.1 0 -2.4 0.4 -2.4 3.8 0 2 -0.3 5.4 -0.6 7.5 l-0.7 3.7 4.3 0 4.3 0 -0.6 -6.5z"/>
  <path d="M144 38.1 c0 -2.8 0.2 -2.9 3.5 -2.4 2.8 0.4 3.5 0.2 3.5 -1.1 0 -1 -0.9 -1.6 -2.4 -1.6 -2.6 0 -3.8 -1.3 -4.3 -4.2 -0.2 -1.4 0.4 -1.8 3.2 -1.8 3.2 0 3.5 -0.2 3.5 -3 0 -2.5 -0.4 -3 -2.4 -3 -1.6 0 -2.6 -0.7 -2.9 -2.2 -0.9 -3.3 -0.1 -3.8 6.4 -3.8 4.6 0 5.9 -0.3 5.9 -1.5 0 -1.2 -1.3 -1.5 -6.1 -1.5 -6 0 -6 0 -5.7 -2.7 0.3 -2.7 0.4 -2.8 6 -2.5 l5.7 0.4 0.3 -3.3 c0.4 -4.6 3.4 -5.2 4.3 -1 0.6 2.8 1 3.1 4.5 3.1 5.1 0 7 0.8 7 3.1 0 1.5 -0.9 1.8 -5.2 2.1 -4.1 0.2 -5.4 0.7 -5.6 2.1 -0.3 1.4 0.4 1.7 4.7 1.7 4.5 0 5.1 0.3 5.1 2 0 1.1 -0.6 2.3 -1.4 2.6 -2.1 0.8 0.2 6.2 2.9 6.6 1.2 0.2 2.1 1.2 2.3 2.6 0.3 1.8 -0.1 2.2 -2.2 2.2 -1.9 0 -2.6 0.5 -2.6 2 0 1.4 0.7 2 2.4 2 2.7 0 4 2.2 2.3 3.9 -0.6 0.6 -4.3 1.1 -8.4 1.1 -7.1 0 -7.3 -0.1 -7.3 -2.5 0 -2.1 0.5 -2.5 3 -2.5 4.1 0 4.4 -3.7 0.3 -4.2 -3.8 -0.4 -4.1 -2.7 -0.5 -4 2.2 -0.9 3.1 -2 3.4 -4 0.4 -2.6 0.2 -2.8 -2.7 -2.8 -1.8 0 -4.7 0.3 -6.4 0.6 -2.6 0.5 -3.1 1.1 -3.1 3.5 0 2.1 0.5 2.8 2.3 3.1 3.3 0.5 3.5 4.4 0.3 5.2 -3.4 0.8 -3.4 3.6 -0.1 3.6 1.8 0 2.5 0.5 2.5 1.9 0 1.5 -1 1.9 -5.2 2.5 -9.9 1.1 -10.8 1 -10.8 -2.3z"/>
 </g>
</svg>